<?xml version="1.0" ?><svg id="Layer_1" style="enable-background:new 0 0 64 64;" version="1.1" viewBox="0 0 64 64" xml:space="preserve" xmlns="http://www.w3.org/2000/svg" xmlns:xlink="http://www.w3.org/1999/xlink"><style type="text/css">
	.st0{fill:#62BEE7;}
	.st1{fill:#474E5E;}
	.st2{fill:#F3EEE4;}
	.st3{fill:#FFFFFF;}
	.st4{fill:#E8DCCA;}
	.st5{opacity:0.1;fill:#231F20;}
	.st6{fill:#506268;}
	.st7{fill:#EB5151;}
	.st8{fill:#C64444;}
	.st9{fill:#9CCB5B;}
	.st10{fill:#404A4C;}
	.st11{fill:#676767;}
	.st12{fill:#E0E1E5;}
	.st13{fill:#9D9EA0;}
	.st14{fill:#B3B4B7;}
	.st15{opacity:0.1;}
	.st16{fill:#231F20;}
	.st17{fill:#FACC20;}
	.st18{fill:#FDEF34;}
	.st19{fill:#F7A90B;}
	.st20{fill:#20B8EA;}
	.st21{fill:#00A8EA;}
	.st22{fill:#33D3F4;}
	.st23{opacity:0.25;fill:#FFFFFF;}
	.st24{fill:#CACBCE;}
	.st25{fill:#2E3545;}
	.st26{fill:#8DAF4A;}
	.st27{fill:#F9C2AF;}
	.st28{fill:#AFDDF4;}
	.st29{fill:#677177;}
	.st30{fill:#FFEDB3;}
	.st31{fill:#695652;}
	.st32{fill:#30A7BF;}
	.st33{fill:#4D5556;}
	.st34{opacity:0.35;}
	.st35{fill:#FFCB04;}
	.st36{fill:#99E9FA;}
	.st37{opacity:0.2;}
	.st38{opacity:3.000000e-02;}
	.st39{fill:#9ECA5B;}
	.st40{fill:#98BA56;}
	.st41{fill:#40EEFF;}
	.st42{fill:#FF6A52;}
	.st43{opacity:0.1;fill:#FFFFFF;}
	.st44{opacity:0.4;}
	.st45{fill:#57606D;}
	.st46{fill:#BACA5B;}
	.st47{opacity:0.25;}
	.st48{opacity:5.000000e-02;fill:#231F20;}
	.st49{opacity:0.2;fill:#FFFFFF;}
	.st50{opacity:0.3;}
	.st51{fill:#FFD82F;}
	.st52{fill:#F4C121;}
	.st53{fill:#EF9D0A;}
	.st54{fill:#F9E532;}
	.st55{fill:#F4C01E;}
	.st56{fill:#FFE14D;}
	.st57{fill:#B7C156;}
	.st58{fill:#DBA92C;}
	.st59{fill:#363D4D;}
	.st60{fill:#3F4656;}
	.st61{fill:#463E33;}
	.st62{fill:none;}
	.st63{opacity:4.000000e-02;}
	.st64{fill:#4DB6AC;}
	.st65{fill:#CADE49;}
	.st66{fill:#9FD343;}
	.st67{fill:#AAD643;}
	.st68{fill:#82C736;}
	.st69{opacity:0.3;fill:#FFFFFF;}
	.st70{fill:#FFD640;}
	.st71{opacity:0.5;}
	.st72{opacity:0.6;}
</style><g><circle class="st9" cx="32" cy="32" r="32"/><g><path class="st7" d="M51.1,11.1H12.9c-1,0-1.8,0.8-1.8,1.8v6.7h41.8v-6.7C52.9,11.9,52.1,11.1,51.1,11.1z M23.4,16.9    c-0.9,0-1.6-0.7-1.6-1.6s0.7-1.6,1.6-1.6c0.9,0,1.6,0.7,1.6,1.6S24.3,16.9,23.4,16.9z M40.6,16.9c-0.9,0-1.6-0.7-1.6-1.6    s0.7-1.6,1.6-1.6c0.9,0,1.6,0.7,1.6,1.6S41.5,16.9,40.6,16.9z"/><rect class="st25" height="16.6" width="41.8" x="11.1" y="19.6"/><path class="st1" d="M11.1,51.1c0,1,0.8,1.8,1.8,1.8h38.2c1,0,1.8-0.8,1.8-1.8V36.3H11.1V51.1z"/><path class="st69" d="M51.1,11.1H12.9c-1,0-1.8,0.8-1.8,1.8v1.2c0-1,0.8-1.8,1.8-1.8h38.2c1,0,1.8,0.8,1.8,1.8v-1.2    C52.9,11.9,52.1,11.1,51.1,11.1z"/><path class="st5" d="M12.9,52.9h38.2c1,0,1.8-0.8,1.8-1.8v-1.2c0,1-0.8,1.8-1.8,1.8H12.9c-1,0-1.8-0.8-1.8-1.8v1.2    C11.1,52.1,11.9,52.9,12.9,52.9z"/><g><path d="M31,45.7H18.4c0-1.6,0.3-2.9,1-4c0.4-0.5,0.9-1.1,1.5-1.8s1.4-1.3,2.3-2.1c0.8-0.7,1.5-1.2,2-1.8c0.6-0.5,1-1,1.3-1.4     s0.6-0.9,0.7-1.3s0.2-0.9,0.2-1.4c0-0.8-0.2-1.4-0.7-1.9c-0.4-0.4-1.1-0.7-1.9-0.7c-0.3,0-0.7,0.1-1,0.2     c-0.3,0.1-0.6,0.3-0.8,0.6c-0.2,0.3-0.4,0.6-0.6,1s-0.3,0.9-0.3,1.4h-3.4c0.1-0.9,0.3-1.8,0.6-2.5s0.8-1.4,1.3-1.9     c0.5-0.5,1.2-0.9,1.9-1.2c0.7-0.3,1.5-0.4,2.4-0.4c0.9,0,1.8,0.1,2.5,0.4c0.7,0.3,1.4,0.7,1.9,1.1c0.5,0.5,0.9,1.1,1.2,1.7     s0.4,1.4,0.4,2.1c0,0.7-0.1,1.4-0.3,2s-0.5,1.2-0.9,1.7c-0.4,0.5-0.9,1.1-1.6,1.9s-1.6,1.5-2.6,2.4c-0.3,0.3-0.7,0.6-1.2,1     s-0.9,1-1.4,1.6h8V45.7z"/><path d="M37.1,33.2c0.7-0.3,1.5-0.5,2.5-0.5c0.8,0,1.5,0.1,2.2,0.4c0.7,0.3,1.3,0.7,1.9,1.3c0.6,0.6,1,1.2,1.3,2.1     c0.3,0.8,0.5,1.8,0.5,2.8c0,0.9-0.2,1.8-0.5,2.7c-0.3,0.8-0.7,1.5-1.3,2.1s-1.2,1.1-2,1.4C41,45.8,40.1,46,39.1,46     c-0.8,0-1.5-0.1-2.2-0.4c-0.7-0.2-1.3-0.6-1.9-1.1c-0.5-0.5-1-1.1-1.4-1.9s-0.6-1.6-0.7-2.6h3.4c0.1,0.5,0.2,1,0.3,1.4     c0.2,0.4,0.4,0.7,0.6,1c0.2,0.3,0.5,0.4,0.8,0.6s0.6,0.2,1,0.2c0.5,0,0.9-0.1,1.2-0.3c0.4-0.2,0.7-0.5,1-0.8     c0.3-0.3,0.5-0.7,0.6-1.2s0.2-0.9,0.2-1.4c0-0.6-0.1-1.2-0.2-1.7s-0.4-0.9-0.6-1.2s-0.6-0.6-1-0.7s-0.8-0.2-1.2-0.2     c-1.1,0-2,0.5-2.9,1.4h-2.6l0.8-10.2h10.4V30h-7.4L37.1,33.2z"/></g><g><path class="st3" d="M23,42.5c0.5-0.6,0.9-1.2,1.4-1.6c0.5-0.4,0.9-0.8,1.2-1c1-0.9,1.9-1.7,2.6-2.4c0.4-0.4,0.8-0.8,1.1-1.2     c0.2-0.2,0.4-0.5,0.5-0.7c0.4-0.5,0.7-1.1,0.9-1.7c0.2-0.6,0.3-1.3,0.3-2c0-0.8-0.1-1.5-0.4-2.1c-0.3-0.7-0.7-1.2-1.2-1.7     c-0.5-0.5-1.1-0.9-1.9-1.1c-0.7-0.3-1.6-0.4-2.5-0.4c-0.9,0-1.7,0.1-2.4,0.4c-0.7,0.3-1.4,0.7-1.9,1.2c-0.5,0.5-1,1.2-1.3,1.9     c-0.3,0.8-0.5,1.6-0.6,2.5h3.4c0-0.5,0.1-1,0.3-1.4c0.2-0.4,0.4-0.7,0.6-1c0.2-0.3,0.5-0.5,0.8-0.6c0.3-0.1,0.6-0.2,1-0.2     c0.8,0,1.5,0.2,1.9,0.7c0.4,0.4,0.7,1.1,0.7,1.9c0,0.5-0.1,1-0.2,1.4c-0.2,0.4-0.4,0.9-0.7,1.3c-0.3,0.5-0.8,0.9-1.3,1.4     c-0.1,0.1-0.1,0.1-0.2,0.2c-0.5,0.5-1.1,1-1.8,1.6c-0.9,0.7-1.7,1.4-2.3,2.1c-0.6,0.7-1.1,1.2-1.5,1.8c-0.7,1-1,2.3-1,4H31v-3.1     H23z"/><path class="st3" d="M45.1,36.4c0-0.1,0-0.1-0.1-0.2c-0.3-0.7-0.7-1.4-1.2-1.9c-0.6-0.6-1.2-1-1.9-1.3c-0.7-0.3-1.5-0.4-2.2-0.4     c-1,0-1.8,0.2-2.5,0.5l0.2-3.2h7.4v-3.1H34.4l-0.8,9.4l-0.1,0.8h2.6c0.3-0.3,0.6-0.6,0.9-0.8c0.6-0.4,1.3-0.6,1.9-0.6     c0.5,0,0.9,0.1,1.2,0.2c0.2,0.1,0.4,0.2,0.6,0.4c0.1,0.1,0.3,0.2,0.4,0.4c0.3,0.3,0.5,0.7,0.6,1.2c0.2,0.5,0.2,1,0.2,1.7     c0,0.5-0.1,1-0.2,1.4c-0.1,0.4-0.4,0.8-0.6,1.2c-0.3,0.3-0.6,0.6-1,0.8c-0.4,0.2-0.8,0.3-1.2,0.3c-0.3,0-0.7-0.1-1-0.2     c-0.3-0.1-0.6-0.3-0.8-0.6c-0.2-0.3-0.4-0.6-0.6-1c-0.2-0.4-0.3-0.8-0.3-1.4H33c0.1,1,0.3,1.9,0.7,2.6c0.4,0.7,0.8,1.4,1.4,1.9     c0.5,0.5,1.2,0.9,1.9,1.1c0.7,0.2,1.5,0.4,2.2,0.4c1,0,1.9-0.2,2.7-0.5c0.8-0.3,1.5-0.8,2-1.4c0.6-0.6,1-1.3,1.3-2.1     c0.3-0.8,0.5-1.7,0.5-2.7C45.6,38.2,45.5,37.3,45.1,36.4z"/></g><path class="st5" d="M30.5,29.8c0.3,0.7,0.4,1.4,0.4,2.1c0,0.7-0.1,1.4-0.3,2c-0.2,0.6-0.5,1.2-0.9,1.7c-0.1,0.2-0.3,0.4-0.5,0.7    H25c0.1-0.1,0.1-0.1,0.2-0.2c0.6-0.5,1-1,1.3-1.4c0.3-0.4,0.6-0.9,0.7-1.3c0.1-0.4,0.2-0.9,0.2-1.4c0-0.8-0.2-1.4-0.7-1.9    c-0.4-0.4-1.1-0.7-1.9-0.7c-0.3,0-0.7,0.1-1,0.2c-0.3,0.1-0.6,0.3-0.8,0.6c-0.2,0.3-0.4,0.6-0.6,1c-0.2,0.4-0.3,0.9-0.3,1.4h-3.4    c0.1-0.9,0.3-1.8,0.6-2.5c0.3-0.8,0.8-1.4,1.3-1.9c0.5-0.5,1.2-0.9,1.9-1.2c0.7-0.3,1.5-0.4,2.4-0.4c0.9,0,1.8,0.1,2.5,0.4    c0.7,0.3,1.4,0.7,1.9,1.1C29.9,28.6,30.3,29.2,30.5,29.8z"/><path class="st5" d="M45.1,36.3H33.7l0.8-9.4h10.4V30h-7.4l-0.2,3.2c0.7-0.3,1.5-0.5,2.5-0.5c0.8,0,1.5,0.1,2.2,0.4    c0.7,0.3,1.3,0.7,1.9,1.3C44.3,34.9,44.8,35.5,45.1,36.3z"/></g></g></svg>