<?xml version="1.0" ?><svg id="Layer_1" style="enable-background:new 0 0 64 64;" version="1.1" viewBox="0 0 64 64" xml:space="preserve" xmlns="http://www.w3.org/2000/svg" xmlns:xlink="http://www.w3.org/1999/xlink"><style type="text/css">
	.st0{fill:#62BEE7;}
	.st1{fill:#474E5E;}
	.st2{fill:#F3EEE4;}
	.st3{fill:#FFFFFF;}
	.st4{fill:#E8DCCA;}
	.st5{opacity:0.1;fill:#231F20;}
	.st6{fill:#506268;}
	.st7{fill:#EB5151;}
	.st8{fill:#C64444;}
	.st9{fill:#9CCB5B;}
	.st10{fill:#404A4C;}
	.st11{fill:#676767;}
	.st12{fill:#E0E1E5;}
	.st13{fill:#9D9EA0;}
	.st14{fill:#B3B4B7;}
	.st15{opacity:0.1;}
	.st16{fill:#231F20;}
	.st17{fill:#FACC20;}
	.st18{fill:#FDEF34;}
	.st19{fill:#F7A90B;}
	.st20{fill:#20B8EA;}
	.st21{fill:#00A8EA;}
	.st22{fill:#33D3F4;}
	.st23{opacity:0.25;fill:#FFFFFF;}
	.st24{fill:#CACBCE;}
	.st25{fill:#2E3545;}
	.st26{fill:#8DAF4A;}
	.st27{fill:#F9C2AF;}
	.st28{fill:#AFDDF4;}
	.st29{fill:#677177;}
	.st30{fill:#FFEDB3;}
	.st31{fill:#695652;}
	.st32{fill:#30A7BF;}
	.st33{fill:#4D5556;}
	.st34{opacity:0.35;}
	.st35{fill:#FFCB04;}
	.st36{fill:#99E9FA;}
	.st37{opacity:0.2;}
	.st38{opacity:3.000000e-02;}
	.st39{fill:#9ECA5B;}
	.st40{fill:#98BA56;}
	.st41{fill:#40EEFF;}
	.st42{fill:#FF6A52;}
	.st43{opacity:0.1;fill:#FFFFFF;}
	.st44{opacity:0.4;}
	.st45{fill:#57606D;}
	.st46{fill:#BACA5B;}
	.st47{opacity:0.25;}
	.st48{opacity:5.000000e-02;fill:#231F20;}
	.st49{opacity:0.2;fill:#FFFFFF;}
	.st50{opacity:0.3;}
	.st51{fill:#FFD82F;}
	.st52{fill:#F4C121;}
	.st53{fill:#EF9D0A;}
	.st54{fill:#F9E532;}
	.st55{fill:#F4C01E;}
	.st56{fill:#FFE14D;}
	.st57{fill:#B7C156;}
	.st58{fill:#DBA92C;}
	.st59{fill:#363D4D;}
	.st60{fill:#3F4656;}
	.st61{fill:#463E33;}
	.st62{fill:none;}
	.st63{opacity:4.000000e-02;}
	.st64{fill:#4DB6AC;}
	.st65{fill:#CADE49;}
	.st66{fill:#9FD343;}
	.st67{fill:#AAD643;}
	.st68{fill:#82C736;}
	.st69{opacity:0.3;fill:#FFFFFF;}
	.st70{fill:#FFD640;}
	.st71{opacity:0.5;}
	.st72{opacity:0.6;}
</style><g><circle class="st1" cx="32" cy="32" r="32"/><g><g><path class="st3" d="M33,28.9L25.7,39c-0.1,0.2-0.4,0.3-0.6,0.3c-0.2,0-0.3,0-0.4-0.1c-0.3-0.2-0.4-0.7-0.2-1.1L31.8,28     c0.2-0.3,0.7-0.4,1.1-0.2C33.2,28.1,33.2,28.6,33,28.9z"/></g><g><path class="st3" d="M42.8,14c-0.1,0-0.2,0-0.3-0.1c-0.2-0.2-0.2-0.5-0.1-0.7l1.6-1.9c0.2-0.2,0.5-0.2,0.7-0.1     c0.2,0.2,0.2,0.5,0.1,0.7l-1.6,1.9C43,13.9,42.9,14,42.8,14z"/></g><g><path class="st21" d="M52.7,45.8c-3.3-5.2-8.5-8.7-14.5-9.7c0,0,0-0.1,0-0.1c-3.2-5.4-8.5-9.1-14.8-10.3c0,0-0.1,0-0.1,0     c-3.1-5.3-8.2-9-14.2-10.2c9-8.6,23.3-9.9,34-2.4S57.7,34.4,52.7,45.8z"/></g><g><path class="st41" d="M38.1,36c-3.2-5.4-8.5-9.1-14.8-10.3c7.7-9.5,19.8-12.7,19.8-12.7S44.4,25.5,38.1,36z"/></g><g><path class="st19" d="M26.3,55v0.4H12.6v-4.6h9.5c0,0,0,0,0,0C22.8,52.7,24.4,54.3,26.3,55z"/></g><g><path class="st19" d="M26.3,41.6V42c-2,0.7-3.5,2.2-4.2,4.2h-9.5v-4.6H26.3z"/></g><g class="st15"><rect class="st16" height="0.4" width="13.7" x="12.6" y="41.6"/></g><g class="st15"><rect class="st16" height="0.4" width="13.7" x="12.6" y="50.8"/></g><g><path class="st17" d="M21.7,48.5c0,0.8,0.1,1.6,0.4,2.3c0,0,0,0,0,0h-6.5v-4.6h6.5C21.9,46.9,21.7,47.7,21.7,48.5z"/></g><g><rect class="st17" height="4.6" width="13.7" x="15.7" y="37.1"/></g><g class="st15"><rect class="st16" height="0.4" width="13.7" x="15.7" y="46.2"/></g><g><circle class="st18" cx="28.6" cy="48.5" r="7.3"/></g><g><circle class="st17" cx="28.6" cy="48.5" r="5.6"/></g><g class="st50"><path class="st16" d="M30.7,49.3c-0.1-0.2-0.4-0.9-1.8-1.2v-1.8c0.4,0.1,0.6,0.4,0.7,0.7c0.1,0.3,0.3,0.5,0.5,0.5     c0.1,0,1.1-0.3,0.1-1.4c-0.1-0.2-0.4-0.5-1.4-0.6v-0.7h-0.5v0.7c-1.7,0.2-1.8,1.3-1.8,1.8c0,1.5,1.5,1.7,1.8,1.8v2     c-0.7-0.2-0.8-0.9-0.9-1.1c-0.1-0.3-0.4-0.3-0.5-0.3c-0.4,0-0.6,0.4-0.6,0.5c0,0.2,0.1,1,1.1,1.6c0.2,0.1,0.5,0.2,0.9,0.2l0,0.7     h0.6V52c0.4,0,0.8-0.1,1.1-0.3C30.8,51.2,31,50.2,30.7,49.3z M28.3,48c-0.4-0.2-0.8-0.3-0.8-0.8c0-0.2,0.1-0.6,0.8-0.8V48z      M28.9,51.1v-1.9c0.9,0.3,0.9,0.7,0.9,0.9C29.8,50.4,29.7,50.9,28.9,51.1z"/></g><g><path class="st58" d="M30.7,49.1c-0.1-0.2-0.4-0.9-1.8-1.2v-1.8c0.4,0.1,0.6,0.4,0.7,0.7c0.1,0.3,0.3,0.5,0.5,0.5     c0.1,0,1.1-0.3,0.1-1.4c-0.1-0.2-0.4-0.5-1.4-0.6v-0.7h-0.5v0.7c-1.7,0.2-1.8,1.3-1.8,1.8c0,1.5,1.5,1.7,1.8,1.8v2     c-0.7-0.2-0.8-0.9-0.9-1.1c-0.1-0.3-0.4-0.3-0.5-0.3c-0.4,0-0.6,0.4-0.6,0.5c0,0.2,0.1,1,1.1,1.6c0.2,0.1,0.5,0.2,0.9,0.2l0,0.7     h0.6v-0.7c0.4,0,0.8-0.1,1.1-0.3C30.8,51,31,50,30.7,49.1z M28.3,47.8c-0.4-0.2-0.8-0.3-0.8-0.8c0-0.2,0.1-0.6,0.8-0.8V47.8z      M28.9,50.9V49c0.9,0.3,0.9,0.7,0.9,0.9C29.8,50.2,29.7,50.7,28.9,50.9z"/></g><g class="st34"><path class="st3" d="M30.9,41.5l-9.3,9.3c-0.2-0.5-0.3-1.1-0.3-1.6l8-8C29.8,41.2,30.4,41.4,30.9,41.5z"/><path class="st3" d="M34.8,44.6L24.7,54.7c-0.7-0.5-1.4-1-1.9-1.7l10.3-10.3C33.8,43.2,34.4,43.9,34.8,44.6z"/></g></g></g></svg>