<?xml version="1.0" ?><svg id="Layer_1" style="enable-background:new 0 0 64 64;" version="1.1" viewBox="0 0 64 64" xml:space="preserve" xmlns="http://www.w3.org/2000/svg" xmlns:xlink="http://www.w3.org/1999/xlink"><style type="text/css">
	.st0{fill:#62BEE7;}
	.st1{fill:#474E5E;}
	.st2{fill:#F3EEE4;}
	.st3{fill:#FFFFFF;}
	.st4{fill:#E8DCCA;}
	.st5{opacity:0.1;fill:#231F20;}
	.st6{fill:#506268;}
	.st7{fill:#EB5151;}
	.st8{fill:#C64444;}
	.st9{fill:#9CCB5B;}
	.st10{fill:#404A4C;}
	.st11{fill:#676767;}
	.st12{fill:#E0E1E5;}
	.st13{fill:#9D9EA0;}
	.st14{fill:#B3B4B7;}
	.st15{opacity:0.1;}
	.st16{fill:#231F20;}
	.st17{fill:#FACC20;}
	.st18{fill:#FDEF34;}
	.st19{fill:#F7A90B;}
	.st20{fill:#20B8EA;}
	.st21{fill:#00A8EA;}
	.st22{fill:#33D3F4;}
	.st23{opacity:0.25;fill:#FFFFFF;}
	.st24{fill:#CACBCE;}
	.st25{fill:#2E3545;}
	.st26{fill:#8DAF4A;}
	.st27{fill:#F9C2AF;}
	.st28{fill:#AFDDF4;}
	.st29{fill:#677177;}
	.st30{fill:#FFEDB3;}
	.st31{fill:#695652;}
	.st32{fill:#30A7BF;}
	.st33{fill:#4D5556;}
	.st34{opacity:0.35;}
	.st35{fill:#FFCB04;}
	.st36{fill:#99E9FA;}
	.st37{opacity:0.2;}
	.st38{opacity:3.000000e-02;}
	.st39{fill:#9ECA5B;}
	.st40{fill:#98BA56;}
	.st41{fill:#40EEFF;}
	.st42{fill:#FF6A52;}
	.st43{opacity:0.1;fill:#FFFFFF;}
	.st44{opacity:0.4;}
	.st45{fill:#57606D;}
	.st46{fill:#BACA5B;}
	.st47{opacity:0.25;}
	.st48{opacity:5.000000e-02;fill:#231F20;}
	.st49{opacity:0.2;fill:#FFFFFF;}
	.st50{opacity:0.3;}
	.st51{fill:#FFD82F;}
	.st52{fill:#F4C121;}
	.st53{fill:#EF9D0A;}
	.st54{fill:#F9E532;}
	.st55{fill:#F4C01E;}
	.st56{fill:#FFE14D;}
	.st57{fill:#B7C156;}
	.st58{fill:#DBA92C;}
	.st59{fill:#363D4D;}
	.st60{fill:#3F4656;}
	.st61{fill:#463E33;}
	.st62{fill:none;}
	.st63{opacity:4.000000e-02;}
	.st64{fill:#4DB6AC;}
	.st65{fill:#CADE49;}
	.st66{fill:#9FD343;}
	.st67{fill:#AAD643;}
	.st68{fill:#82C736;}
	.st69{opacity:0.3;fill:#FFFFFF;}
	.st70{fill:#FFD640;}
	.st71{opacity:0.5;}
	.st72{opacity:0.6;}
</style><g><circle class="st21" cx="32" cy="32" r="32"/><g><g><g><rect class="st46" height="16.5" width="24" x="29" y="30.1"/></g></g><g><polygon class="st3" points="29,30.1 20.8,18.2 12.5,30.1 12.5,46.6 29,46.6    "/></g><g><rect class="st31" height="12" width="7.5" x="17" y="34.6"/></g><g><path class="st18" d="M44,15.1c0,2.4-1,4.5-2.6,6H30.1c-1.6-1.5-2.6-3.6-2.6-6c0-4.6,3.7-8.2,8.2-8.2C40.3,6.9,44,10.6,44,15.1z"/></g><path class="st8" d="M55.2,30.1L46,16.6h-2.1c-0.3,1.8-1.2,3.3-2.4,4.5H30.1c-1.3-1.2-2.1-2.7-2.4-4.5h-9.4L8.8,30.1h3.8v0    l8.2-11.9L29,30.1v0H55.2z"/><polygon class="st7" points="29.6,30.1 20,16.6 10.3,30.1 12.5,30.1 20,19.3 27.4,30.1   "/><g><rect class="st2" height="2.6" width="46.5" x="8.8" y="46.6"/></g><path class="st17" d="M32.9,20.6h5.6c2-1,3.4-3.1,3.4-5.5c0-3.4-2.8-6.2-6.2-6.2c-3.4,0-6.2,2.8-6.2,6.2    C29.6,17.5,30.9,19.6,32.9,20.6z"/><g><path class="st42" d="M38.1,15.9c-0.1-0.3-0.4-1-2-1.3v-2c0.4,0.1,0.7,0.4,0.8,0.8c0.1,0.3,0.3,0.5,0.6,0.5     c0.2,0,1.2-0.3,0.1-1.6c-0.2-0.2-0.5-0.6-1.5-0.7v-0.8h-0.6v0.8c-1.9,0.2-2.1,1.4-2.1,2c0,1.7,1.6,1.9,2.1,2.1v2.2     c-0.8-0.2-0.9-1-1-1.3c-0.1-0.4-0.4-0.4-0.6-0.4c-0.5,0-0.6,0.5-0.6,0.6c0,0.2,0.1,1.2,1.3,1.8c0.3,0.1,0.6,0.2,1,0.3l0,0.8h0.6     v-0.8c0.5,0,0.8-0.2,1.2-0.4C38.2,18,38.5,16.9,38.1,15.9z M35.5,14.4c-0.5-0.2-0.8-0.3-0.9-0.9c0-0.3,0.1-0.7,0.9-0.9V14.4z      M36.1,18v-2.1c1,0.3,1,0.8,1,1C37.1,17.1,37,17.7,36.1,18z"/></g><g><g><rect class="st57" height="0.6" width="1.5" x="29" y="31.3"/><rect class="st57" height="0.6" width="3.2" x="32.2" y="31.3"/><rect class="st57" height="0.6" width="3.2" x="37" y="31.3"/><rect class="st57" height="0.6" width="3.2" x="41.8" y="31.3"/><rect class="st57" height="0.6" width="3.2" x="46.6" y="31.3"/><rect class="st57" height="0.6" width="1.5" x="51.5" y="31.3"/></g><g><rect class="st57" height="0.6" width="3.2" x="29.8" y="33"/><rect class="st57" height="0.6" width="3.2" x="34.6" y="33"/><rect class="st57" height="0.6" width="3.2" x="39.4" y="33"/><rect class="st57" height="0.6" width="3.2" x="44.2" y="33"/><rect class="st57" height="0.6" width="3.2" x="49.1" y="33"/></g><g><rect class="st57" height="0.6" width="1.5" x="29" y="34.7"/><rect class="st57" height="0.6" width="3.2" x="32.2" y="34.7"/><rect class="st57" height="0.6" width="3.2" x="37" y="34.7"/><rect class="st57" height="0.6" width="3.2" x="41.8" y="34.7"/><rect class="st57" height="0.6" width="3.2" x="46.6" y="34.7"/><rect class="st57" height="0.6" width="1.5" x="51.5" y="34.7"/></g><g><rect class="st57" height="0.6" width="3.2" x="29.8" y="36.4"/><rect class="st57" height="0.6" width="3.2" x="34.6" y="36.4"/><rect class="st57" height="0.6" width="3.2" x="39.4" y="36.4"/><rect class="st57" height="0.6" width="3.2" x="44.2" y="36.4"/><rect class="st57" height="0.6" width="3.2" x="49.1" y="36.4"/></g><g><rect class="st57" height="0.6" width="1.5" x="29" y="38"/><rect class="st57" height="0.6" width="3.2" x="32.2" y="38"/><rect class="st57" height="0.6" width="3.2" x="37" y="38"/><rect class="st57" height="0.6" width="3.2" x="41.8" y="38"/><rect class="st57" height="0.6" width="3.2" x="46.6" y="38"/><rect class="st57" height="0.6" width="1.5" x="51.5" y="38"/></g><g><rect class="st57" height="0.6" width="3.2" x="29.8" y="39.7"/><rect class="st57" height="0.6" width="3.2" x="34.6" y="39.7"/><rect class="st57" height="0.6" width="3.2" x="39.4" y="39.7"/><rect class="st57" height="0.6" width="3.2" x="44.2" y="39.7"/><rect class="st57" height="0.6" width="3.2" x="49.1" y="39.7"/></g><g><rect class="st57" height="0.6" width="1.5" x="29" y="41.4"/><rect class="st57" height="0.6" width="3.2" x="32.2" y="41.4"/><rect class="st57" height="0.6" width="3.2" x="37" y="41.4"/><rect class="st57" height="0.6" width="3.2" x="41.8" y="41.4"/><rect class="st57" height="0.6" width="3.2" x="46.6" y="41.4"/><rect class="st57" height="0.6" width="1.5" x="51.5" y="41.4"/></g><g><rect class="st57" height="0.6" width="3.2" x="29.8" y="43.1"/><rect class="st57" height="0.6" width="3.2" x="34.6" y="43.1"/><rect class="st57" height="0.6" width="3.2" x="39.4" y="43.1"/><rect class="st57" height="0.6" width="3.2" x="44.2" y="43.1"/><rect class="st57" height="0.6" width="3.2" x="49.1" y="43.1"/></g><g><rect class="st57" height="0.6" width="1.5" x="29" y="44.8"/><rect class="st57" height="0.6" width="3.2" x="32.2" y="44.8"/><rect class="st57" height="0.6" width="3.2" x="37" y="44.8"/><rect class="st57" height="0.6" width="3.2" x="41.8" y="44.8"/><rect class="st57" height="0.6" width="3.2" x="46.6" y="44.8"/><rect class="st57" height="0.6" width="1.5" x="51.5" y="44.8"/></g></g><g><rect class="st3" height="8" width="13" x="35.2" y="34.4"/><rect class="st41" height="5.4" width="10.4" x="36.5" y="35.7"/><polygon class="st22" points="36.5,41 47,35.7 47,41    "/></g><rect class="st7" height="0.8" width="14.6" x="34.4" y="42.1"/><g><g><circle class="st58" cx="28.7" cy="14.9" r="0.3"/><circle class="st58" cx="42.8" cy="14.9" r="0.3"/></g><g><circle class="st58" cx="29.1" cy="17.3" r="0.3"/><circle class="st58" cx="42.4" cy="12.5" r="0.3"/></g><g><circle class="st58" cx="30.4" cy="19.5" r="0.3"/><circle class="st58" cx="41.1" cy="10.4" r="0.3"/></g><g><circle class="st58" cx="39.3" cy="8.8" r="0.3"/></g><g><circle class="st58" cx="37" cy="8" r="0.3"/></g><g><circle class="st58" cx="34.5" cy="8" r="0.3"/></g><g><circle class="st58" cx="32.2" cy="8.8" r="0.3"/></g><g><circle class="st58" cx="41.1" cy="19.5" r="0.3"/><circle class="st58" cx="30.4" cy="10.4" r="0.3"/></g><g><circle class="st58" cx="42.4" cy="17.3" r="0.3"/><circle class="st58" cx="29.1" cy="12.5" r="0.3"/></g></g><g class="st47"><path class="st3" d="M39.1,7.6L28.2,18.5c-0.4-0.8-0.6-1.7-0.7-2.7l8.9-8.9C37.4,7,38.3,7.2,39.1,7.6z"/><path class="st3" d="M43.6,12.6L35,21.1h-4.9c-0.2-0.2-0.4-0.4-0.6-0.6L41.1,8.9C42.3,9.9,43.1,11.1,43.6,12.6z"/></g><g><path class="st7" d="M44.7,21.9h-18c-0.4,0-0.8-0.3-0.8-0.8c0-0.4,0.3-0.8,0.8-0.8h18c0.4,0,0.8,0.3,0.8,0.8     C45.5,21.5,45.2,21.9,44.7,21.9z"/></g></g></g></svg>