<?xml version="1.0" ?><svg id="Layer_1" style="enable-background:new 0 0 64 64;" version="1.1" viewBox="0 0 64 64" xml:space="preserve" xmlns="http://www.w3.org/2000/svg" xmlns:xlink="http://www.w3.org/1999/xlink"><style type="text/css">
	.st0{fill:#62BEE7;}
	.st1{fill:#474E5E;}
	.st2{fill:#F3EEE4;}
	.st3{fill:#FFFFFF;}
	.st4{fill:#E8DCCA;}
	.st5{opacity:0.1;fill:#231F20;}
	.st6{fill:#506268;}
	.st7{fill:#EB5151;}
	.st8{fill:#C64444;}
	.st9{fill:#9CCB5B;}
	.st10{fill:#404A4C;}
	.st11{fill:#676767;}
	.st12{fill:#E0E1E5;}
	.st13{fill:#9D9EA0;}
	.st14{fill:#B3B4B7;}
	.st15{opacity:0.1;}
	.st16{fill:#231F20;}
	.st17{fill:#FACC20;}
	.st18{fill:#FDEF34;}
	.st19{fill:#F7A90B;}
	.st20{fill:#20B8EA;}
	.st21{fill:#00A8EA;}
	.st22{fill:#33D3F4;}
	.st23{opacity:0.25;fill:#FFFFFF;}
	.st24{fill:#CACBCE;}
	.st25{fill:#2E3545;}
	.st26{fill:#8DAF4A;}
	.st27{fill:#F9C2AF;}
	.st28{fill:#AFDDF4;}
	.st29{fill:#677177;}
	.st30{fill:#FFEDB3;}
	.st31{fill:#695652;}
	.st32{fill:#30A7BF;}
	.st33{fill:#4D5556;}
	.st34{opacity:0.35;}
	.st35{fill:#FFCB04;}
	.st36{fill:#99E9FA;}
	.st37{opacity:0.2;}
	.st38{opacity:3.000000e-02;}
	.st39{fill:#9ECA5B;}
	.st40{fill:#98BA56;}
	.st41{fill:#40EEFF;}
	.st42{fill:#FF6A52;}
	.st43{opacity:0.1;fill:#FFFFFF;}
	.st44{opacity:0.4;}
	.st45{fill:#57606D;}
	.st46{fill:#BACA5B;}
	.st47{opacity:0.25;}
	.st48{opacity:5.000000e-02;fill:#231F20;}
	.st49{opacity:0.2;fill:#FFFFFF;}
	.st50{opacity:0.3;}
	.st51{fill:#FFD82F;}
	.st52{fill:#F4C121;}
	.st53{fill:#EF9D0A;}
	.st54{fill:#F9E532;}
	.st55{fill:#F4C01E;}
	.st56{fill:#FFE14D;}
	.st57{fill:#B7C156;}
	.st58{fill:#DBA92C;}
	.st59{fill:#363D4D;}
	.st60{fill:#3F4656;}
	.st61{fill:#463E33;}
	.st62{fill:none;}
	.st63{opacity:4.000000e-02;}
	.st64{fill:#4DB6AC;}
	.st65{fill:#CADE49;}
	.st66{fill:#9FD343;}
	.st67{fill:#AAD643;}
	.st68{fill:#82C736;}
	.st69{opacity:0.3;fill:#FFFFFF;}
	.st70{fill:#FFD640;}
	.st71{opacity:0.5;}
	.st72{opacity:0.6;}
</style><g><circle class="st19" cx="32" cy="32" r="32"/><g><g><path class="st3" d="M25.2,12.6v8.5h5.3v0h11.3v0.1c-1.7,0.3-3,1.9-3,3.7v17.3v4.5H50c2.1,0,3.7-1.7,3.7-3.7V12.6     c0-1.1-0.9-2-2-2H27.3C26.1,10.6,25.2,11.5,25.2,12.6z"/></g><g><rect class="st12" height="1.4" width="22" x="28.5" y="13.4"/><rect class="st12" height="1.4" width="22" x="28.5" y="16.2"/><rect class="st12" height="1.4" width="22" x="28.5" y="19.1"/><rect class="st12" height="1.4" width="22" x="28.5" y="21.9"/><rect class="st12" height="1.4" width="22" x="28.5" y="24.8"/><rect class="st12" height="1.4" width="22" x="28.5" y="27.7"/></g><g><path class="st24" d="M46.3,42.8V32.6l0-7.6c0-1.8-1.2-3.5-3.1-3.9c-2.4-0.4-4.4,1.4-4.4,3.7v21.7h3.7h3.8H50     C47.9,46.6,46.3,44.9,46.3,42.8z"/></g><path class="st3" d="M30.5,21.1L30.5,21.1l-16.3,0c-2.2,0-4,1.8-4,4v26.6l1.8,1.8l1.8-1.8l1.8,1.8l1.8-1.8l1.8,1.8l1.8-1.8    l1.8,1.8l1.8-1.8l1.8,1.8l1.8-1.8l1.8,1.8l1.8-1.8l1.8,1.8l1.8-1.8l1.8,1.8l1.8-1.8V24.8c0-1.8,1.3-3.3,3-3.7v-0.1H30.5z"/><g><g><rect class="st12" height="1.4" width="16.7" x="14.1" y="33.8"/></g><g><rect class="st12" height="1.4" width="16.7" x="14.1" y="36.7"/></g><g><rect class="st12" height="1.4" width="8.6" x="14.1" y="39.6"/></g><g><rect class="st12" height="1.4" width="8.6" x="14.1" y="42.4"/></g></g><g><g><rect class="st21" height="6" width="20.8" x="14.1" y="25.1"/></g></g><g><path class="st7" d="M26.8,41.3v-1c0.2,0.1,0.3,0.2,0.4,0.4c0,0.2,0.1,0.2,0.3,0.2c0.1,0,0.6-0.1,0.1-0.8     c-0.1-0.1-0.2-0.3-0.7-0.3v-0.4h-0.3v0.4c-0.9,0.1-1,0.7-1,0.9c0,0.8,0.8,0.9,1,1v1.1c-0.4-0.1-0.5-0.5-0.5-0.6     c-0.1-0.2-0.2-0.2-0.3-0.2c-0.2,0-0.3,0.2-0.3,0.3c0,0.1,0.1,0.6,0.6,0.8c0.1,0.1,0.3,0.1,0.5,0.1l0,0.4h0.3v-0.4     c0.2,0,0.4-0.1,0.6-0.2c0.4-0.3,0.6-0.8,0.4-1.2C27.7,41.9,27.6,41.5,26.8,41.3z M26.5,41.3c-0.2-0.1-0.4-0.1-0.4-0.4     c0-0.1,0-0.3,0.4-0.4V41.3z M26.8,43v-1c0.5,0.2,0.5,0.4,0.5,0.5C27.3,42.6,27.3,42.8,26.8,43z"/></g><g><path class="st7" d="M29.8,41.3v-1c0.2,0.1,0.3,0.2,0.4,0.4c0,0.2,0.1,0.2,0.3,0.2c0.1,0,0.6-0.1,0.1-0.8     c-0.1-0.1-0.2-0.3-0.7-0.3v-0.4h-0.3v0.4c-0.9,0.1-1,0.7-1,0.9c0,0.8,0.8,0.9,1,1v1.1c-0.4-0.1-0.5-0.5-0.5-0.6     c-0.1-0.2-0.2-0.2-0.3-0.2c-0.2,0-0.3,0.2-0.3,0.3c0,0.1,0.1,0.6,0.6,0.8c0.1,0.1,0.3,0.1,0.5,0.1l0,0.4h0.3v-0.4     c0.2,0,0.4-0.1,0.6-0.2c0.4-0.3,0.6-0.8,0.4-1.2C30.7,41.9,30.6,41.5,29.8,41.3z M29.5,41.3c-0.2-0.1-0.4-0.1-0.4-0.4     c0-0.1,0-0.3,0.4-0.4V41.3z M29.8,43v-1c0.5,0.2,0.5,0.4,0.5,0.5C30.3,42.6,30.2,42.8,29.8,43z"/></g><g><path class="st22" d="M18,28.7c0,0,0-0.1-0.1-0.1c0,0-0.1-0.1-0.1-0.1c0,0-0.1-0.1-0.1-0.1c0,0-0.1,0-0.2,0H17v1h-0.5v-2.6h1.2     c0.1,0,0.1,0,0.2,0s0.1,0,0.2,0c0.1,0,0.1,0,0.2,0.1c0.1,0,0.1,0.1,0.2,0.1c0.1,0.1,0.1,0.2,0.2,0.3c0,0.1,0.1,0.2,0.1,0.3     c0,0.2,0,0.3-0.1,0.4c-0.1,0.1-0.2,0.2-0.3,0.3c0.1,0,0.1,0.1,0.2,0.2c0,0.1,0.1,0.1,0.1,0.2l0.3,0.8h-0.5L18,28.7z M17,27.9h0.6     c0.1,0,0.2,0,0.2,0c0.1,0,0.1,0,0.2-0.1c0,0,0.1-0.1,0.1-0.1c0,0,0-0.1,0-0.2c0-0.1,0-0.2-0.1-0.3c-0.1-0.1-0.2-0.1-0.3-0.1H17     V27.9z"/><path class="st22" d="M21.3,29.4h-2v-2.6h1.9v0.4h-1.4v0.6h1.3v0.4h-1.3V29h1.5V29.4z"/><path class="st22" d="M23.4,27.6c0-0.1,0-0.1-0.1-0.2c0-0.1-0.1-0.1-0.1-0.1s-0.1-0.1-0.2-0.1c-0.1,0-0.1,0-0.2,0     c-0.1,0-0.2,0-0.3,0.1c-0.1,0-0.2,0.1-0.2,0.2c-0.1,0.1-0.1,0.2-0.1,0.3c0,0.1-0.1,0.2-0.1,0.4c0,0.1,0,0.3,0.1,0.4     c0,0.1,0.1,0.2,0.1,0.3c0.1,0.1,0.1,0.1,0.2,0.2c0.1,0,0.2,0.1,0.3,0.1c0.2,0,0.3,0,0.4-0.1c0.1-0.1,0.2-0.2,0.2-0.4h0.5     c0,0.1-0.1,0.3-0.1,0.4c-0.1,0.1-0.1,0.2-0.2,0.3c-0.1,0.1-0.2,0.1-0.3,0.2c-0.1,0-0.3,0.1-0.4,0.1c-0.2,0-0.4,0-0.5-0.1     c-0.1-0.1-0.3-0.2-0.4-0.3c-0.1-0.1-0.2-0.3-0.2-0.4c-0.1-0.2-0.1-0.3-0.1-0.6s0-0.4,0.1-0.6c0.1-0.2,0.1-0.3,0.2-0.4     c0.1-0.1,0.2-0.2,0.4-0.3c0.1-0.1,0.3-0.1,0.5-0.1c0.1,0,0.3,0,0.4,0.1c0.1,0,0.2,0.1,0.3,0.2c0.1,0.1,0.2,0.2,0.2,0.3     c0.1,0.1,0.1,0.2,0.1,0.4H23.4z"/><path class="st22" d="M26.4,29.4h-2v-2.6h1.9v0.4h-1.4v0.6h1.3v0.4h-1.3V29h1.5V29.4z"/><path class="st22" d="M27.4,29.4h-0.5v-2.6h0.5V29.4z"/><path class="st22" d="M28,26.8h1c0.1,0,0.3,0,0.4,0c0.1,0,0.2,0.1,0.3,0.1c0.1,0.1,0.2,0.1,0.2,0.2c0.1,0.1,0.1,0.2,0.1,0.4     c0,0.3-0.1,0.5-0.3,0.6c-0.2,0.1-0.4,0.2-0.7,0.2h-0.5v1H28V26.8z M28.5,28h0.5c0.1,0,0.2,0,0.2,0c0.1,0,0.1,0,0.2-0.1     c0,0,0.1-0.1,0.1-0.1c0,0,0-0.1,0-0.2c0-0.1,0-0.1,0-0.2c0,0-0.1-0.1-0.1-0.1c0,0-0.1,0-0.2-0.1c-0.1,0-0.1,0-0.2,0h-0.5V28z"/><path class="st22" d="M32.4,27.3h-0.8v2.1h-0.5v-2.1h-0.8v-0.4h2.1V27.3z"/></g><g><rect class="st1" height="3.6" width="0.3" x="17.1" y="46.5"/><rect class="st1" height="3.6" width="0.3" x="18.7" y="46.5"/><rect class="st1" height="3.6" width="0.3" x="19.3" y="46.5"/><rect class="st1" height="3.6" width="0.3" x="19.9" y="46.5"/><rect class="st1" height="3.6" width="0.3" x="21.1" y="46.5"/><rect class="st1" height="3.6" width="0.3" x="21.7" y="46.5"/><rect class="st1" height="3.6" width="0.3" x="23.3" y="46.5"/><rect class="st1" height="3.6" width="0.3" x="24.7" y="46.5"/><rect class="st1" height="3.6" width="0.3" x="28.9" y="46.5"/><rect class="st1" height="3.6" width="0.3" x="29.4" y="46.5"/><rect class="st1" height="3.6" width="0.3" x="30" y="46.5"/><rect class="st1" height="3.6" width="0.3" x="31.7" y="46.5"/><rect class="st1" height="3.6" width="0.4" x="20.4" y="46.5"/><rect class="st1" height="3.6" width="0.5" x="23.9" y="46.5"/><rect class="st1" height="3.6" width="0.5" x="27.2" y="46.5"/><rect class="st1" height="3.6" width="0.5" x="28.1" y="46.5"/><rect class="st1" height="3.6" width="0.5" x="25.3" y="46.5"/><rect class="st1" height="3.6" width="0.8" x="22.2" y="46.5"/><rect class="st1" height="3.6" width="0.8" x="26.1" y="46.5"/><rect class="st1" height="3.6" width="0.8" x="30.6" y="46.5"/><rect class="st1" height="3.6" width="0.8" x="17.6" y="46.5"/></g><g><rect class="st25" height="1.8" width="0.3" x="17.1" y="48.3"/><rect class="st25" height="1.8" width="0.3" x="18.7" y="48.3"/><rect class="st25" height="1.8" width="0.3" x="19.3" y="48.3"/><rect class="st25" height="1.8" width="0.3" x="19.9" y="48.3"/><rect class="st25" height="1.8" width="0.3" x="21.1" y="48.3"/><rect class="st25" height="1.8" width="0.3" x="21.7" y="48.3"/><rect class="st25" height="1.8" width="0.3" x="23.3" y="48.3"/><rect class="st25" height="1.8" width="0.3" x="24.7" y="48.3"/><rect class="st25" height="1.8" width="0.3" x="28.9" y="48.3"/><rect class="st25" height="1.8" width="0.3" x="29.4" y="48.3"/><rect class="st25" height="1.8" width="0.3" x="30" y="48.3"/><rect class="st25" height="1.8" width="0.3" x="31.7" y="48.3"/><rect class="st25" height="1.8" width="0.4" x="20.4" y="48.3"/><rect class="st25" height="1.8" width="0.5" x="23.9" y="48.3"/><rect class="st25" height="1.8" width="0.5" x="27.2" y="48.3"/><rect class="st25" height="1.8" width="0.5" x="28.1" y="48.3"/><rect class="st25" height="1.8" width="0.5" x="25.3" y="48.3"/><rect class="st25" height="1.8" width="0.8" x="22.2" y="48.3"/><rect class="st25" height="1.8" width="0.8" x="26.1" y="48.3"/><rect class="st25" height="1.8" width="0.8" x="30.6" y="48.3"/><rect class="st25" height="1.8" width="0.8" x="17.6" y="48.3"/></g></g></g></svg>